HIERARCHY
ROOT RootJoint
{
    OFFSET   0.000000   0.000000   0.000000
    CHANNELS 6 Xposition Yposition Zposition Xrotation Yrotation Zrotation
    JOINT pelvis_lowerback
    {
        OFFSET   0.000000   0.093605   0.000000
        CHANNELS 3 Xrotation Yrotation Zrotation
        JOINT lowerback_torso
        {
            OFFSET   0.000000   0.100000   0.000000
            CHANNELS 3 Xrotation Yrotation Zrotation
            JOINT torso_head
            {
                OFFSET   0.000000   0.282350   0.000000
                CHANNELS 3 Xrotation Yrotation Zrotation
                End Site
                {
                    OFFSET   0.000000   0.192650   0.000000
                }
            }
            JOINT rTorso_Clavicle
            {
                OFFSET  -0.001000   0.157500   0.000000
                CHANNELS 3 Xrotation Yrotation Zrotation
                JOINT rShoulder
                {
                    OFFSET  -0.117647   0.000000   0.000000
                    CHANNELS 3 Xrotation Yrotation Zrotation
                    JOINT rElbow
                    {
                        OFFSET  -0.245000   0.000000   0.000000
                        CHANNELS 3 Xrotation Yrotation Zrotation
                        JOINT rWrist
                        {
                            OFFSET  -0.240000   0.000000   0.000000
                            CHANNELS 3 Xrotation Yrotation Zrotation
                            End Site
                            {
                                OFFSET  -0.116353  -0.002500   0.000000
                            }
                        }
                    }
                }
            }
            JOINT lTorso_Clavicle
            {
                OFFSET   0.001000   0.157500   0.000000
                CHANNELS 3 Xrotation Yrotation Zrotation
                JOINT lShoulder
                {
                    OFFSET   0.117647   0.000000   0.000000
                    CHANNELS 3 Xrotation Yrotation Zrotation
                    JOINT lElbow
                    {
                        OFFSET   0.245000   0.000000   0.000000
                        CHANNELS 3 Xrotation Yrotation Zrotation
                        JOINT lWrist
                        {
                            OFFSET   0.240000   0.000000   0.000000
                            CHANNELS 3 Xrotation Yrotation Zrotation
                            End Site
                            {
                                OFFSET   0.116353  -0.002500   0.000000
                            }
                        }
                    }
                }
            }
        }
    }
    JOINT rHip
    {
        OFFSET  -0.100000  -0.051395   0.000000
        CHANNELS 3 Xrotation Yrotation Zrotation
        JOINT rKnee
        {
            OFFSET   0.000000  -0.410000   0.000000
            CHANNELS 3 Xrotation Yrotation Zrotation
            JOINT rAnkle
            {
                OFFSET   0.000000  -0.390000   0.000000
                CHANNELS 3 Xrotation Yrotation Zrotation
                JOINT rToeJoint
                {
                    OFFSET   0.000000  -0.050000   0.130000
                    CHANNELS 3 Xrotation Yrotation Zrotation
                    End Site
                    {
                        OFFSET  -0.010000   0.002000   0.060000
                    }
                }
            }
        }
    }
    JOINT lHip
    {
        OFFSET   0.100000  -0.051395   0.000000
        CHANNELS 3 Xrotation Yrotation Zrotation
        JOINT lKnee
        {
            OFFSET   0.000000  -0.410000   0.000000
            CHANNELS 3 Xrotation Yrotation Zrotation
            JOINT lAnkle
            {
                OFFSET   0.000000  -0.390000   0.000000
                CHANNELS 3 Xrotation Yrotation Zrotation
                JOINT lToeJoint
                {
                    OFFSET   0.000000  -0.050000   0.130000
                    CHANNELS 3 Xrotation Yrotation Zrotation
                    End Site
                    {
                        OFFSET   0.010000   0.002000   0.060000
                    }
                }
            }
        }
    }
}
MOTION
Frames: 17
Frame Time:   0.008333
 -2.314104   0.880011   5.469202  -7.726562  -4.238699  -0.717488   7.558615   3.372202  -0.293094   2.981408  -0.997644   1.436752   1.496620  -0.072750   3.130209   1.666715   0.529325   5.536431   1.454853  10.883309  54.845595  -0.000346  29.308527  -0.000346   0.352153   3.260520  -4.924399   3.513044   2.154267  -6.608585   7.325285  -7.127675 -55.604575   0.000636 -21.045121   0.000957   1.329319  -2.099779   3.862624  20.766653  -0.656012  -2.122014  23.223425   0.008293  -0.004385  -9.718098  -0.586620   2.877318 -38.342431   0.011174   0.015771 -18.937511  -2.983050  -0.158366  19.098754   0.004019  -0.002713  -5.515244   8.204212   2.608968  -1.562367   0.000563  -0.002446
 -2.311950   0.881117   5.478950  -7.640276  -4.434088  -0.472576   7.431538   3.375334  -0.550973   2.980043  -0.902634   1.439230   1.547042  -0.055363   3.188402   1.621624   0.447400   5.807493   1.499286  10.803468  54.876237  -0.000705  29.015367  -0.000978   0.399339   3.439424  -4.808965   3.507011   2.208879  -6.656560   7.371124  -7.093854 -55.639728   0.000362 -20.750997   0.000830   1.334830  -2.120427   3.808701  20.012868  -0.667474  -2.693608  25.373755   0.010073  -0.008269  -8.236281  -0.422506   3.597325 -39.404718   0.010744   0.017060 -18.755428  -3.100584  -0.662579  19.687307   0.004274  -0.004637  -5.002302   8.145229   2.917412  -1.501114   0.000327  -0.002269
 -2.309837   0.882395   5.488802  -7.604575  -4.501978  -0.282356   7.298300   3.307831  -0.747543   3.002504  -0.856082   1.481725   1.599219  -0.041961   3.249429   1.615165   0.331601   6.056001   1.573010  10.705233  54.904999  -0.000989  28.726630  -0.001539   0.435315   3.551270  -4.698350   3.517853   2.270702  -6.696750   7.427044  -7.057652 -55.687916   0.000215 -20.473754   0.000754   1.340362  -2.130074   3.696127  19.238056  -0.651294  -3.171777  27.636371   0.012330  -0.009758  -6.741122  -0.209777   4.138254 -39.690862   0.008805   0.014382 -18.438585  -3.238464  -1.131062  20.131351   0.004262  -0.005108  -4.590811   8.084082   3.222942  -1.467588   0.000203  -0.001951
 -2.307776   0.883663   5.498727  -7.582590  -4.478230  -0.117750   7.144395   3.212235  -0.912513   3.023120  -0.843266   1.542821   1.646269  -0.030610   3.310132   1.642455   0.190751   6.282511   1.671154  10.594142  54.932892  -0.001196  28.446811  -0.001948   0.464126   3.604719  -4.586186   3.536853   2.336676  -6.720061   7.487424  -7.018760 -55.730161   0.000202 -20.213253   0.000783   1.345782  -2.130698   3.573235  18.502994  -0.629873  -3.590913  29.838006   0.014472  -0.009771  -5.242079   0.010633   4.658645 -38.953919   0.006127   0.010134 -18.073309  -3.367229  -1.577332  20.511953   0.004167  -0.004923  -4.231561   8.028674   3.511140  -1.444393   0.000127  -0.001632
 -2.305760   0.884831   5.508655  -7.560200  -4.396954   0.035607   6.977064   3.107377  -1.060074   3.033411  -0.848730   1.610214   1.686319  -0.020302   3.367923   1.689243   0.039037   6.489268   1.781656  10.477687  54.958171  -0.001332  28.178456  -0.002194   0.487980   3.615856  -4.475492   3.557795   2.402987  -6.726854   7.547511  -6.978830 -55.761754   0.000274 -19.969303   0.000876   1.350641  -2.126861   3.463264  17.813153  -0.602783  -3.974146  31.925432   0.016265  -0.009032  -3.768738   0.235144   5.153551 -37.445311   0.003089   0.005753 -17.697386  -3.482162  -2.008903  20.865467   0.004059  -0.004476  -3.902572   7.979867   3.779437  -1.425952   0.000078  -0.001350
 -2.303787   0.885858   5.518527  -7.532574  -4.279426   0.184902   6.804683   3.001669  -1.197305   3.033205  -0.863524   1.677700   1.720301  -0.010710   3.421932   1.744240  -0.113274   6.678465   1.894871  10.361890  54.980306  -0.001412  27.923921  -0.002292   0.508696   3.601893  -4.369772   3.577150   2.466644  -6.720427   7.604376  -6.939620 -55.782908   0.000384 -19.741578   0.000989   1.355047  -2.122584   3.372625  17.165620  -0.570395  -4.334322  33.883558   0.017618  -0.007993  -2.337242   0.459728   5.620473 -35.362038   0.000094   0.001881 -17.327822  -3.583778  -2.429936  21.209272   0.003963  -0.003941  -3.593016   7.936967   4.028262  -1.410133   0.000045  -0.001110
 -2.301858   0.886727   5.528300  -7.497998  -4.138095   0.333728   6.633346   2.899092  -1.327710   3.024481  -0.882673   1.742229   1.749618  -0.001724   3.472052   1.800362  -0.260093   6.852266   2.004787  10.250551  54.999532  -0.001450  27.684546  -0.002270   0.527562   3.576312  -4.270776   3.593206   2.525854  -6.704564   7.656493  -6.902386 -55.795446   0.000499 -19.529514   0.001095   1.359209  -2.120595   3.300571  16.556650  -0.533301  -4.678252  35.709598   0.018519  -0.006881  -0.956609   0.681083   6.058522 -32.844827  -0.002571  -0.001267 -16.972644  -3.673233  -2.842475  21.551616   0.003887  -0.003393  -3.297395   7.899179   4.258795  -1.395984   0.000023  -0.000910
 -2.300008   0.887588   5.537459  -7.444904  -4.100199   0.474054   6.518822   2.802672  -1.476604   3.019272  -0.833262   1.815597   1.714076   0.006705   3.469367   1.807163  -0.332529   6.976421   2.114224  10.182769  55.053698  -0.001771  27.325958  -0.002144   0.582359   3.634101  -4.139255   3.601941   2.517343  -6.686161   7.700492  -6.895450 -55.853712   0.000407 -19.479666   0.000882   1.352405  -2.016742   3.270819  15.478187  -0.613816  -5.048052  38.464238   0.017713  -0.011588   1.040280   0.921846   6.590581 -29.778769  -0.006879  -0.016024 -16.651441  -3.659322  -3.226009  21.936048   0.003959  -0.002971  -3.426264   7.826186   4.747402  -1.323490  -0.000179  -0.000846
 -2.298310   0.888429   5.546498  -7.435044  -4.034046   0.590118   6.428810   2.685053  -1.612980   3.039138  -0.801158   1.886933   1.686218   0.014269   3.464676   1.820743  -0.398599   7.098152   2.222528  10.118615  55.110421  -0.001970  26.985495  -0.002015   0.635355   3.654588  -3.977844   3.596972   2.495559  -6.677193   7.728116  -6.901160 -55.919997   0.000321 -19.443119   0.000702   1.351283  -1.966552   3.219264  14.411584  -0.708389  -5.350589  41.180708   0.015744  -0.014784   2.920437   1.161704   7.080899 -26.920437  -0.011851  -0.026587 -16.267642  -3.665399  -3.577938  22.278323   0.003894  -0.002540  -3.575517   7.750270   5.215666  -1.288651  -0.000233  -0.000729
 -2.296739   0.889214   5.555473  -7.444890  -3.950248   0.690310   6.340065   2.560719  -1.740597   3.063981  -0.785428   1.952330   1.663178   0.021191   3.460131   1.844343  -0.468628   7.215461   2.332639  10.054040  55.167421  -0.002035  26.664452  -0.001925   0.685085   3.655056  -3.805950   3.586666   2.469997  -6.675530   7.747957  -6.911755 -55.988519   0.000247 -19.412646   0.000558   1.352235  -1.944296   3.154103  13.383202  -0.798120  -5.601927  43.735900   0.013348  -0.016251   4.674556   1.398840   7.532739 -24.303094  -0.016645  -0.032793 -15.852726  -3.676372  -3.902329  22.596169   0.003768  -0.002117  -3.725101   7.676681   5.655450  -1.260038  -0.000255  -0.000619
 -2.295276   0.889918   5.564396  -7.467175  -3.858691   0.780191   6.249237   2.435326  -1.862409   3.086342  -0.781071   2.009849   1.641908   0.027572   3.455590   1.875212  -0.541597   7.325914   2.442944   9.989264  55.222251  -0.001988  26.362069  -0.001867   0.731772   3.641179  -3.633380   3.574110   2.443567  -6.678850   7.763266  -6.924551 -56.057068   0.000186 -19.386177   0.000443   1.354016  -1.936745   3.081613  12.394566  -0.880449  -5.816679  46.118663   0.010899  -0.016518   6.309752   1.631561   7.949007 -21.907357  -0.020709  -0.035711 -15.419798  -3.688385  -4.204793  22.901015   0.003620  -0.001732  -3.869270   7.606336   6.067038  -1.234813  -0.000260  -0.000524
 -2.293905   0.890531   5.573272  -7.499186  -3.764056   0.862809   6.155921   2.311319  -1.979854   3.104065  -0.784830   2.059055   1.621494   0.033429   3.451007   1.910387  -0.615676   7.428299   2.551464   9.925152  55.273416  -0.001858  26.077763  -0.001827   0.775810   3.617082  -3.465508   3.560522   2.417285  -6.685654   7.775468  -6.938397 -56.124324   0.000137 -19.362715   0.000352   1.356192  -1.937815   3.005349  11.445817  -0.955368  -6.003416  48.335993   0.008600  -0.015995   7.833923   1.858561   8.332472 -19.714446  -0.023814  -0.036268 -14.975327  -3.700634  -4.489251  23.199835   0.003471  -0.001395  -4.005252   7.539335   6.451861  -1.212174  -0.000255  -0.000444
 -2.292617   0.891046   5.582103  -7.539099  -3.668150   0.940033   6.060014   2.190024  -2.093665   3.116406  -0.794583   2.100191   1.601685   0.038775   3.446395   1.947712  -0.689488   7.522278   2.656788   9.862429  55.320248  -0.001674  25.810896  -0.001795   0.817550   3.586231  -3.305245   3.546438   2.391567  -6.694956   7.785294  -6.952728 -56.189514   0.000098 -19.341704   0.000281   1.358592  -1.944545   2.927418  10.536879  -1.023432  -6.167343  50.398013   0.006559  -0.014967   9.254615   2.078880   8.685751 -17.707282  -0.025912  -0.035197 -14.523365  -3.712859  -4.758363  23.496642   0.003330  -0.001105  -4.131798   7.475652   6.811524  -1.191648  -0.000243  -0.000375
 -2.291368   0.891693   5.590544  -7.587990  -3.652856   0.986922   6.019083   2.051712  -2.155201   3.115051  -0.750294   2.122326   1.549240   0.017172   3.411918   1.988901  -0.678095   7.624773   2.713030   9.794543  55.313248  -0.001531  25.465118  -0.001793   0.855085   3.577931  -3.115064   3.588371   2.302868  -6.764340   7.770779  -7.018573 -56.182856   0.000174 -19.479230   0.000442   1.343602  -1.858684   2.827735   9.370270  -1.154366  -6.347365  53.033813   0.001868  -0.017638   9.936947   1.865822   8.876090 -15.991817  -0.024272  -0.040038 -14.011815  -3.648801  -4.976606  23.696585   0.003049  -0.000858  -4.352450   7.316157   7.275329  -1.002834  -0.000688  -0.000605
 -2.290227   0.892428   5.598928  -7.661042  -3.618973   0.998130   5.979004   1.892702  -2.184424   3.120270  -0.726090   2.155815   1.503784  -0.004519   3.380341   2.028572  -0.665807   7.714719   2.767859   9.728886  55.299116  -0.001333  25.137487  -0.001862   0.890566   3.535484  -2.929663   3.611517   2.204996  -6.833125   7.741883  -7.092237 -56.179947   0.000222 -19.617765   0.000590   1.335655  -1.830171   2.717894   8.226054  -1.298844  -6.482492  55.612016  -0.002393  -0.019169  10.572970   1.664804   9.056342 -14.475392  -0.023102  -0.041991 -13.442197  -3.609435  -5.149830  23.836162   0.002695  -0.000653  -4.588335   7.159460   7.715740  -0.836640  -0.000959  -0.000726
 -2.289186   0.893184   5.607301  -7.740403  -3.571943   0.986509   5.924191   1.725992  -2.197007   3.118175  -0.720815   2.196822   1.462195  -0.025161   3.352839   2.072171  -0.661759   7.793104   2.824962   9.663192  55.283411  -0.001093  24.829747  -0.001980   0.924077   3.481935  -2.752859   3.623619   2.106118  -6.894706   7.706259  -7.167081 -56.177872   0.000240 -19.751985   0.000694   1.330210  -1.834675   2.609215   7.127181  -1.439187  -6.588093  58.042042  -0.005656  -0.019466  11.167586   1.479348   9.226890 -13.091535  -0.022043  -0.041897 -12.845697  -3.582779  -5.288988  23.941405   0.002341  -0.000484  -4.826621   7.009417   8.129259  -0.686864  -0.001110  -0.000772
 -2.288232   0.893914   5.615672  -7.820510  -3.517382   0.959883   5.854326   1.556982  -2.200444   3.104786  -0.729637   2.241031   1.422023  -0.044712   3.328312   2.118847  -0.664909   7.861373   2.883644   9.597738  55.266565  -0.000831  24.540867  -0.002110   0.955774   3.422563  -2.585920   3.628145   2.008867  -6.947733   7.667102  -7.240704 -56.174343   0.000234 -19.880523   0.000756   1.326115  -1.859190   2.507736   6.077693  -1.571135  -6.677098  60.313368  -0.007922  -0.018959  11.722642   1.308031   9.387906 -11.827457  -0.020916  -0.040439 -12.237939  -3.564050  -5.402657  24.029477   0.002022  -0.000348  -5.059797   6.866519   8.516597  -0.550964  -0.001178  -0.000774
